<svg width="1023" height="1023" viewBox="0 0 1023 1023" fill="none"
  xmlns="http://www.w3.org/2000/svg">
  <path d="M310 0H279V31H310V0Z" fill="black"/>
  <path d="M465 0H434V31H465V0Z" fill="black"/>
  <path d="M496 0H465V31H496V0Z" fill="black"/>
  <path d="M527 0H496V31H527V0Z" fill="black"/>
  <path d="M589 0H558V31H589V0Z" fill="black"/>
  <path d="M620 0H589V31H620V0Z" fill="black"/>
  <path d="M682 0H651V31H682V0Z" fill="black"/>
  <path d="M713 0H682V31H713V0Z" fill="black"/>
  <path d="M744 0H713V31H744V0Z" fill="black"/>
  <path d="M496 31H465V62H496V31Z" fill="black"/>
  <path d="M527 31H496V62H527V31Z" fill="black"/>
  <path d="M558 31H527V62H558V31Z" fill="black"/>
  <path d="M651 31H620V62H651V31Z" fill="black"/>
  <path d="M744 31H713V62H744V31Z" fill="black"/>
  <path d="M341 62H310V93H341V62Z" fill="black"/>
  <path d="M372 62H341V93H372V62Z" fill="black"/>
  <path d="M403 62H372V93H403V62Z" fill="black"/>
  <path d="M465 62H434V93H465V62Z" fill="black"/>
  <path d="M527 62H496V93H527V62Z" fill="black"/>
  <path d="M558 62H527V93H558V62Z" fill="black"/>
  <path d="M620 62H589V93H620V62Z" fill="black"/>
  <path d="M651 62H620V93H651V62Z" fill="black"/>
  <path d="M310 93H279V124H310V93Z" fill="black"/>
  <path d="M341 93H310V124H341V93Z" fill="black"/>
  <path d="M372 93H341V124H372V93Z" fill="black"/>
  <path d="M403 93H372V124H403V93Z" fill="black"/>
  <path d="M434 93H403V124H434V93Z" fill="black"/>
  <path d="M496 93H465V124H496V93Z" fill="black"/>
  <path d="M651 93H620V124H651V93Z" fill="black"/>
  <path d="M713 93H682V124H713V93Z" fill="black"/>
  <path d="M372 124H341V155H372V124Z" fill="black"/>
  <path d="M403 124H372V155H403V124Z" fill="black"/>
  <path d="M527 124H496V155H527V124Z" fill="black"/>
  <path d="M558 124H527V155H558V124Z" fill="black"/>
  <path d="M651 124H620V155H651V124Z" fill="black"/>
  <path d="M744 124H713V155H744V124Z" fill="black"/>
  <path d="M775 124H744V155H775V124Z" fill="black"/>
  <path d="M279 155H248V186H279V155Z" fill="black"/>
  <path d="M310 155H279V186H310V155Z" fill="black"/>
  <path d="M372 155H341V186H372V155Z" fill="black"/>
  <path d="M403 155H372V186H403V155Z" fill="black"/>
  <path d="M589 155H558V186H589V155Z" fill="black"/>
  <path d="M620 155H589V186H620V155Z" fill="black"/>
  <path d="M682 155H651V186H682V155Z" fill="black"/>
  <path d="M775 155H744V186H775V155Z" fill="black"/>
  <path d="M279 186H248V217H279V186Z" fill="black"/>
  <path d="M341 186H310V217H341V186Z" fill="black"/>
  <path d="M403 186H372V217H403V186Z" fill="black"/>
  <path d="M465 186H434V217H465V186Z" fill="black"/>
  <path d="M527 186H496V217H527V186Z" fill="black"/>
  <path d="M589 186H558V217H589V186Z" fill="black"/>
  <path d="M651 186H620V217H651V186Z" fill="black"/>
  <path d="M713 186H682V217H713V186Z" fill="black"/>
  <path d="M775 186H744V217H775V186Z" fill="black"/>
  <path d="M465 217H434V248H465V217Z" fill="black"/>
  <path d="M558 217H527V248H558V217Z" fill="black"/>
  <path d="M589 217H558V248H589V217Z" fill="black"/>
  <path d="M682 217H651V248H682V217Z" fill="black"/>
  <path d="M31 248H0V279H31V248Z" fill="black"/>
  <path d="M124 248H93V279H124V248Z" fill="black"/>
  <path d="M186 248H155V279H186V248Z" fill="black"/>
  <path d="M217 248H186V279H217V248Z" fill="black"/>
  <path d="M279 248H248V279H279V248Z" fill="black"/>
  <path d="M341 248H310V279H341V248Z" fill="black"/>
  <path d="M403 248H372V279H403V248Z" fill="black"/>
  <path d="M434 248H403V279H434V248Z" fill="black"/>
  <path d="M465 248H434V279H465V248Z" fill="black"/>
  <path d="M496 248H465V279H496V248Z" fill="black"/>
  <path d="M589 248H558V279H589V248Z" fill="black"/>
  <path d="M682 248H651V279H682V248Z" fill="black"/>
  <path d="M775 248H744V279H775V248Z" fill="black"/>
  <path d="M806 248H775V279H806V248Z" fill="black"/>
  <path d="M868 248H837V279H868V248Z" fill="black"/>
  <path d="M62 279H31V310H62V279Z" fill="black"/>
  <path d="M124 279H93V310H124V279Z" fill="black"/>
  <path d="M186 279H155V310H186V279Z" fill="black"/>
  <path d="M310 279H279V310H310V279Z" fill="black"/>
  <path d="M372 279H341V310H372V279Z" fill="black"/>
  <path d="M465 279H434V310H465V279Z" fill="black"/>
  <path d="M527 279H496V310H527V279Z" fill="black"/>
  <path d="M558 279H527V310H558V279Z" fill="black"/>
  <path d="M651 279H620V310H651V279Z" fill="black"/>
  <path d="M713 279H682V310H713V279Z" fill="black"/>
  <path d="M806 279H775V310H806V279Z" fill="black"/>
  <path d="M837 279H806V310H837V279Z" fill="black"/>
  <path d="M868 279H837V310H868V279Z" fill="black"/>
  <path d="M1023 279H992V310H1023V279Z" fill="black"/>
  <path d="M31 310H0V341H31V310Z" fill="black"/>
  <path d="M124 310H93V341H124V310Z" fill="black"/>
  <path d="M217 310H186V341H217V310Z" fill="black"/>
  <path d="M341 310H310V341H341V310Z" fill="black"/>
  <path d="M403 310H372V341H403V310Z" fill="black"/>
  <path d="M589 310H558V341H589V310Z" fill="black"/>
  <path d="M620 310H589V341H620V310Z" fill="black"/>
  <path d="M868 310H837V341H868V310Z" fill="black"/>
  <path d="M899 310H868V341H899V310Z" fill="black"/>
  <path d="M961 310H930V341H961V310Z" fill="black"/>
  <path d="M1023 310H992V341H1023V310Z" fill="black"/>
  <path d="M31 341H0V372H31V341Z" fill="black"/>
  <path d="M62 341H31V372H62V341Z" fill="black"/>
  <path d="M93 341H62V372H93V341Z" fill="black"/>
  <path d="M124 341H93V372H124V341Z" fill="black"/>
  <path d="M155 341H124V372H155V341Z" fill="black"/>
  <path d="M248 341H217V372H248V341Z" fill="black"/>
  <path d="M372 341H341V372H372V341Z" fill="black"/>
  <path d="M403 341H372V372H403V341Z" fill="black"/>
  <path d="M465 341H434V372H465V341Z" fill="black"/>
  <path d="M496 341H465V372H496V341Z" fill="black"/>
  <path d="M589 341H558V372H589V341Z" fill="black"/>
  <path d="M651 341H620V372H651V341Z" fill="black"/>
  <path d="M682 341H651V372H682V341Z" fill="black"/>
  <path d="M713 341H682V372H713V341Z" fill="black"/>
  <path d="M744 341H713V372H744V341Z" fill="black"/>
  <path d="M837 341H806V372H837V341Z" fill="black"/>
  <path d="M899 341H868V372H899V341Z" fill="black"/>
  <path d="M930 341H899V372H930V341Z" fill="black"/>
  <path d="M1023 341H992V372H1023V341Z" fill="black"/>
  <path d="M62 372H31V403H62V372Z" fill="black"/>
  <path d="M93 372H62V403H93V372Z" fill="black"/>
  <path d="M217 372H186V403H217V372Z" fill="black"/>
  <path d="M310 372H279V403H310V372Z" fill="black"/>
  <path d="M341 372H310V403H341V372Z" fill="black"/>
  <path d="M372 372H341V403H372V372Z" fill="black"/>
  <path d="M558 372H527V403H558V372Z" fill="black"/>
  <path d="M589 372H558V403H589V372Z" fill="black"/>
  <path d="M682 372H651V403H682V372Z" fill="black"/>
  <path d="M775 372H744V403H775V372Z" fill="black"/>
  <path d="M806 372H775V403H806V372Z" fill="black"/>
  <path d="M837 372H806V403H837V372Z" fill="black"/>
  <path d="M930 372H899V403H930V372Z" fill="black"/>
  <path d="M1023 372H992V403H1023V372Z" fill="black"/>
  <path d="M31 403H0V434H31V403Z" fill="black"/>
  <path d="M62 403H31V434H62V403Z" fill="black"/>
  <path d="M124 403H93V434H124V403Z" fill="black"/>
  <path d="M310 403H279V434H310V403Z" fill="black"/>
  <path d="M341 403H310V434H341V403Z" fill="black"/>
  <path d="M403 403H372V434H403V403Z" fill="black"/>
  <path d="M434 403H403V434H434V403Z" fill="black"/>
  <path d="M496 403H465V434H496V403Z" fill="black"/>
  <path d="M527 403H496V434H527V403Z" fill="black"/>
  <path d="M589 403H558V434H589V403Z" fill="black"/>
  <path d="M620 403H589V434H620V403Z" fill="black"/>
  <path d="M682 403H651V434H682V403Z" fill="black"/>
  <path d="M713 403H682V434H713V403Z" fill="black"/>
  <path d="M775 403H744V434H775V403Z" fill="black"/>
  <path d="M806 403H775V434H806V403Z" fill="black"/>
  <path d="M837 403H806V434H837V403Z" fill="black"/>
  <path d="M868 403H837V434H868V403Z" fill="black"/>
  <path d="M899 403H868V434H899V403Z" fill="black"/>
  <path d="M930 403H899V434H930V403Z" fill="black"/>
  <path d="M992 403H961V434H992V403Z" fill="black"/>
  <path d="M1023 403H992V434H1023V403Z" fill="black"/>
  <path d="M124 434H93V465H124V434Z" fill="black"/>
  <path d="M155 434H124V465H155V434Z" fill="black"/>
  <path d="M217 434H186V465H217V434Z" fill="black"/>
  <path d="M279 434H248V465H279V434Z" fill="black"/>
  <path d="M403 434H372V465H403V434Z" fill="black"/>
  <path d="M713 434H682V465H713V434Z" fill="black"/>
  <path d="M744 434H713V465H744V434Z" fill="black"/>
  <path d="M806 434H775V465H806V434Z" fill="black"/>
  <path d="M837 434H806V465H837V434Z" fill="black"/>
  <path d="M868 434H837V465H868V434Z" fill="black"/>
  <path d="M899 434H868V465H899V434Z" fill="black"/>
  <path d="M930 434H899V465H930V434Z" fill="black"/>
  <path d="M992 434H961V465H992V434Z" fill="black"/>
  <path d="M31 465H0V496H31V465Z" fill="black"/>
  <path d="M93 465H62V496H93V465Z" fill="black"/>
  <path d="M155 465H124V496H155V465Z" fill="black"/>
  <path d="M248 465H217V496H248V465Z" fill="black"/>
  <path d="M279 465H248V496H279V465Z" fill="black"/>
  <path d="M372 465H341V496H372V465Z" fill="black"/>
  <path d="M434 465H403V496H434V465Z" fill="black"/>
  <path d="M496 465H465V496H496V465Z" fill="black"/>
  <path d="M558 465H527V496H558V465Z" fill="black"/>
  <path d="M589 465H558V496H589V465Z" fill="black"/>
  <path d="M620 465H589V496H620V465Z" fill="black"/>
  <path d="M682 465H651V496H682V465Z" fill="black"/>
  <path d="M837 465H806V496H837V465Z" fill="black"/>
  <path d="M868 465H837V496H868V465Z" fill="black"/>
  <path d="M899 465H868V496H899V465Z" fill="black"/>
  <path d="M992 465H961V496H992V465Z" fill="black"/>
  <path d="M62 496H31V527H62V496Z" fill="black"/>
  <path d="M93 496H62V527H93V496Z" fill="black"/>
  <path d="M155 496H124V527H155V496Z" fill="black"/>
  <path d="M186 496H155V527H186V496Z" fill="black"/>
  <path d="M217 496H186V527H217V496Z" fill="black"/>
  <path d="M279 496H248V527H279V496Z" fill="black"/>
  <path d="M310 496H279V527H310V496Z" fill="black"/>
  <path d="M403 496H372V527H403V496Z" fill="black"/>
  <path d="M527 496H496V527H527V496Z" fill="black"/>
  <path d="M558 496H527V527H558V496Z" fill="black"/>
  <path d="M620 496H589V527H620V496Z" fill="black"/>
  <path d="M651 496H620V527H651V496Z" fill="black"/>
  <path d="M682 496H651V527H682V496Z" fill="black"/>
  <path d="M713 496H682V527H713V496Z" fill="black"/>
  <path d="M837 496H806V527H837V496Z" fill="black"/>
  <path d="M899 496H868V527H899V496Z" fill="black"/>
  <path d="M992 496H961V527H992V496Z" fill="black"/>
  <path d="M248 527H217V558H248V527Z" fill="black"/>
  <path d="M279 527H248V558H279V527Z" fill="black"/>
  <path d="M341 527H310V558H341V527Z" fill="black"/>
  <path d="M372 527H341V558H372V527Z" fill="black"/>
  <path d="M527 527H496V558H527V527Z" fill="black"/>
  <path d="M589 527H558V558H589V527Z" fill="black"/>
  <path d="M682 527H651V558H682V527Z" fill="black"/>
  <path d="M713 527H682V558H713V527Z" fill="black"/>
  <path d="M744 527H713V558H744V527Z" fill="black"/>
  <path d="M775 527H744V558H775V527Z" fill="black"/>
  <path d="M806 527H775V558H806V527Z" fill="black"/>
  <path d="M868 527H837V558H868V527Z" fill="black"/>
  <path d="M930 527H899V558H930V527Z" fill="black"/>
  <path d="M992 527H961V558H992V527Z" fill="black"/>
  <path d="M31 558H0V589H31V558Z" fill="black"/>
  <path d="M93 558H62V589H93V558Z" fill="black"/>
  <path d="M124 558H93V589H124V558Z" fill="black"/>
  <path d="M155 558H124V589H155V558Z" fill="black"/>
  <path d="M186 558H155V589H186V558Z" fill="black"/>
  <path d="M217 558H186V589H217V558Z" fill="black"/>
  <path d="M341 558H310V589H341V558Z" fill="black"/>
  <path d="M434 558H403V589H434V558Z" fill="black"/>
  <path d="M465 558H434V589H465V558Z" fill="black"/>
  <path d="M558 558H527V589H558V558Z" fill="black"/>
  <path d="M651 558H620V589H651V558Z" fill="black"/>
  <path d="M775 558H744V589H775V558Z" fill="black"/>
  <path d="M837 558H806V589H837V558Z" fill="black"/>
  <path d="M961 558H930V589H961V558Z" fill="black"/>
  <path d="M992 558H961V589H992V558Z" fill="black"/>
  <path d="M1023 558H992V589H1023V558Z" fill="black"/>
  <path d="M62 589H31V620H62V589Z" fill="black"/>
  <path d="M93 589H62V620H93V589Z" fill="black"/>
  <path d="M124 589H93V620H124V589Z" fill="black"/>
  <path d="M186 589H155V620H186V589Z" fill="black"/>
  <path d="M248 589H217V620H248V589Z" fill="black"/>
  <path d="M279 589H248V620H279V589Z" fill="black"/>
  <path d="M341 589H310V620H341V589Z" fill="black"/>
  <path d="M372 589H341V620H372V589Z" fill="black"/>
  <path d="M465 589H434V620H465V589Z" fill="black"/>
  <path d="M496 589H465V620H496V589Z" fill="black"/>
  <path d="M527 589H496V620H527V589Z" fill="black"/>
  <path d="M558 589H527V620H558V589Z" fill="black"/>
  <path d="M620 589H589V620H620V589Z" fill="black"/>
  <path d="M651 589H620V620H651V589Z" fill="black"/>
  <path d="M682 589H651V620H682V589Z" fill="black"/>
  <path d="M713 589H682V620H713V589Z" fill="black"/>
  <path d="M744 589H713V620H744V589Z" fill="black"/>
  <path d="M806 589H775V620H806V589Z" fill="black"/>
  <path d="M837 589H806V620H837V589Z" fill="black"/>
  <path d="M868 589H837V620H868V589Z" fill="black"/>
  <path d="M217 620H186V651H217V620Z" fill="black"/>
  <path d="M310 620H279V651H310V620Z" fill="black"/>
  <path d="M341 620H310V651H341V620Z" fill="black"/>
  <path d="M527 620H496V651H527V620Z" fill="black"/>
  <path d="M589 620H558V651H589V620Z" fill="black"/>
  <path d="M620 620H589V651H620V620Z" fill="black"/>
  <path d="M651 620H620V651H651V620Z" fill="black"/>
  <path d="M682 620H651V651H682V620Z" fill="black"/>
  <path d="M713 620H682V651H713V620Z" fill="black"/>
  <path d="M744 620H713V651H744V620Z" fill="black"/>
  <path d="M775 620H744V651H775V620Z" fill="black"/>
  <path d="M806 620H775V651H806V620Z" fill="black"/>
  <path d="M868 620H837V651H868V620Z" fill="black"/>
  <path d="M1023 620H992V651H1023V620Z" fill="black"/>
  <path d="M62 651H31V682H62V651Z" fill="black"/>
  <path d="M93 651H62V682H93V651Z" fill="black"/>
  <path d="M186 651H155V682H186V651Z" fill="black"/>
  <path d="M341 651H310V682H341V651Z" fill="black"/>
  <path d="M465 651H434V682H465V651Z" fill="black"/>
  <path d="M496 651H465V682H496V651Z" fill="black"/>
  <path d="M527 651H496V682H527V651Z" fill="black"/>
  <path d="M558 651H527V682H558V651Z" fill="black"/>
  <path d="M589 651H558V682H589V651Z" fill="black"/>
  <path d="M682 651H651V682H682V651Z" fill="black"/>
  <path d="M713 651H682V682H713V651Z" fill="black"/>
  <path d="M775 651H744V682H775V651Z" fill="black"/>
  <path d="M837 651H806V682H837V651Z" fill="black"/>
  <path d="M992 651H961V682H992V651Z" fill="black"/>
  <path d="M1023 651H992V682H1023V651Z" fill="black"/>
  <path d="M31 682H0V713H31V682Z" fill="black"/>
  <path d="M62 682H31V713H62V682Z" fill="black"/>
  <path d="M186 682H155V713H186V682Z" fill="black"/>
  <path d="M217 682H186V713H217V682Z" fill="black"/>
  <path d="M310 682H279V713H310V682Z" fill="black"/>
  <path d="M341 682H310V713H341V682Z" fill="black"/>
  <path d="M403 682H372V713H403V682Z" fill="black"/>
  <path d="M434 682H403V713H434V682Z" fill="black"/>
  <path d="M496 682H465V713H496V682Z" fill="black"/>
  <path d="M620 682H589V713H620V682Z" fill="black"/>
  <path d="M806 682H775V713H806V682Z" fill="black"/>
  <path d="M837 682H806V713H837V682Z" fill="black"/>
  <path d="M868 682H837V713H868V682Z" fill="black"/>
  <path d="M930 682H899V713H930V682Z" fill="black"/>
  <path d="M961 682H930V713H961V682Z" fill="black"/>
  <path d="M1023 682H992V713H1023V682Z" fill="black"/>
  <path d="M62 713H31V744H62V713Z" fill="black"/>
  <path d="M93 713H62V744H93V713Z" fill="black"/>
  <path d="M124 713H93V744H124V713Z" fill="black"/>
  <path d="M155 713H124V744H155V713Z" fill="black"/>
  <path d="M186 713H155V744H186V713Z" fill="black"/>
  <path d="M279 713H248V744H279V713Z" fill="black"/>
  <path d="M403 713H372V744H403V713Z" fill="black"/>
  <path d="M434 713H403V744H434V713Z" fill="black"/>
  <path d="M465 713H434V744H465V713Z" fill="black"/>
  <path d="M527 713H496V744H527V713Z" fill="black"/>
  <path d="M589 713H558V744H589V713Z" fill="black"/>
  <path d="M620 713H589V744H620V713Z" fill="black"/>
  <path d="M682 713H651V744H682V713Z" fill="black"/>
  <path d="M837 713H806V744H837V713Z" fill="black"/>
  <path d="M899 713H868V744H899V713Z" fill="black"/>
  <path d="M1023 713H992V744H1023V713Z" fill="black"/>
  <path d="M31 744H0V775H31V744Z" fill="black"/>
  <path d="M217 744H186V775H217V744Z" fill="black"/>
  <path d="M279 744H248V775H279V744Z" fill="black"/>
  <path d="M372 744H341V775H372V744Z" fill="black"/>
  <path d="M434 744H403V775H434V744Z" fill="black"/>
  <path d="M465 744H434V775H465V744Z" fill="black"/>
  <path d="M496 744H465V775H496V744Z" fill="black"/>
  <path d="M527 744H496V775H527V744Z" fill="black"/>
  <path d="M558 744H527V775H558V744Z" fill="black"/>
  <path d="M651 744H620V775H651V744Z" fill="black"/>
  <path d="M682 744H651V775H682V744Z" fill="black"/>
  <path d="M775 744H744V775H775V744Z" fill="black"/>
  <path d="M806 744H775V775H806V744Z" fill="black"/>
  <path d="M837 744H806V775H837V744Z" fill="black"/>
  <path d="M868 744H837V775H868V744Z" fill="black"/>
  <path d="M899 744H868V775H899V744Z" fill="black"/>
  <path d="M279 775H248V806H279V775Z" fill="black"/>
  <path d="M310 775H279V806H310V775Z" fill="black"/>
  <path d="M403 775H372V806H403V775Z" fill="black"/>
  <path d="M465 775H434V806H465V775Z" fill="black"/>
  <path d="M558 775H527V806H558V775Z" fill="black"/>
  <path d="M589 775H558V806H589V775Z" fill="black"/>
  <path d="M620 775H589V806H620V775Z" fill="black"/>
  <path d="M682 775H651V806H682V775Z" fill="black"/>
  <path d="M713 775H682V806H713V775Z" fill="black"/>
  <path d="M775 775H744V806H775V775Z" fill="black"/>
  <path d="M899 775H868V806H899V775Z" fill="black"/>
  <path d="M930 775H899V806H930V775Z" fill="black"/>
  <path d="M1023 775H992V806H1023V775Z" fill="black"/>
  <path d="M310 806H279V837H310V806Z" fill="black"/>
  <path d="M341 806H310V837H341V806Z" fill="black"/>
  <path d="M372 806H341V837H372V806Z" fill="black"/>
  <path d="M403 806H372V837H403V806Z" fill="black"/>
  <path d="M434 806H403V837H434V806Z" fill="black"/>
  <path d="M558 806H527V837H558V806Z" fill="black"/>
  <path d="M651 806H620V837H651V806Z" fill="black"/>
  <path d="M682 806H651V837H682V806Z" fill="black"/>
  <path d="M775 806H744V837H775V806Z" fill="black"/>
  <path d="M837 806H806V837H837V806Z" fill="black"/>
  <path d="M899 806H868V837H899V806Z" fill="black"/>
  <path d="M930 806H899V837H930V806Z" fill="black"/>
  <path d="M961 806H930V837H961V806Z" fill="black"/>
  <path d="M992 806H961V837H992V806Z" fill="black"/>
  <path d="M279 837H248V868H279V837Z" fill="black"/>
  <path d="M310 837H279V868H310V837Z" fill="black"/>
  <path d="M372 837H341V868H372V837Z" fill="black"/>
  <path d="M527 837H496V868H527V837Z" fill="black"/>
  <path d="M558 837H527V868H558V837Z" fill="black"/>
  <path d="M620 837H589V868H620V837Z" fill="black"/>
  <path d="M651 837H620V868H651V837Z" fill="black"/>
  <path d="M682 837H651V868H682V837Z" fill="black"/>
  <path d="M775 837H744V868H775V837Z" fill="black"/>
  <path d="M899 837H868V868H899V837Z" fill="black"/>
  <path d="M1023 837H992V868H1023V837Z" fill="black"/>
  <path d="M403 868H372V899H403V868Z" fill="black"/>
  <path d="M465 868H434V899H465V868Z" fill="black"/>
  <path d="M496 868H465V899H496V868Z" fill="black"/>
  <path d="M558 868H527V899H558V868Z" fill="black"/>
  <path d="M589 868H558V899H589V868Z" fill="black"/>
  <path d="M620 868H589V899H620V868Z" fill="black"/>
  <path d="M682 868H651V899H682V868Z" fill="black"/>
  <path d="M775 868H744V899H775V868Z" fill="black"/>
  <path d="M806 868H775V899H806V868Z" fill="black"/>
  <path d="M837 868H806V899H837V868Z" fill="black"/>
  <path d="M868 868H837V899H868V868Z" fill="black"/>
  <path d="M899 868H868V899H899V868Z" fill="black"/>
  <path d="M930 868H899V899H930V868Z" fill="black"/>
  <path d="M992 868H961V899H992V868Z" fill="black"/>
  <path d="M1023 868H992V899H1023V868Z" fill="black"/>
  <path d="M279 899H248V930H279V899Z" fill="black"/>
  <path d="M341 899H310V930H341V899Z" fill="black"/>
  <path d="M403 899H372V930H403V899Z" fill="black"/>
  <path d="M496 899H465V930H496V899Z" fill="black"/>
  <path d="M589 899H558V930H589V899Z" fill="black"/>
  <path d="M651 899H620V930H651V899Z" fill="black"/>
  <path d="M713 899H682V930H713V899Z" fill="black"/>
  <path d="M837 899H806V930H837V899Z" fill="black"/>
  <path d="M899 899H868V930H899V899Z" fill="black"/>
  <path d="M930 899H899V930H930V899Z" fill="black"/>
  <path d="M961 899H930V930H961V899Z" fill="black"/>
  <path d="M310 930H279V961H310V930Z" fill="black"/>
  <path d="M372 930H341V961H372V930Z" fill="black"/>
  <path d="M434 930H403V961H434V930Z" fill="black"/>
  <path d="M465 930H434V961H465V930Z" fill="black"/>
  <path d="M527 930H496V961H527V930Z" fill="black"/>
  <path d="M558 930H527V961H558V930Z" fill="black"/>
  <path d="M589 930H558V961H589V930Z" fill="black"/>
  <path d="M651 930H620V961H651V930Z" fill="black"/>
  <path d="M775 930H744V961H775V930Z" fill="black"/>
  <path d="M806 930H775V961H806V930Z" fill="black"/>
  <path d="M899 930H868V961H899V930Z" fill="black"/>
  <path d="M930 930H899V961H930V930Z" fill="black"/>
  <path d="M961 930H930V961H961V930Z" fill="black"/>
  <path d="M1023 930H992V961H1023V930Z" fill="black"/>
  <path d="M341 961H310V992H341V961Z" fill="black"/>
  <path d="M372 961H341V992H372V961Z" fill="black"/>
  <path d="M403 961H372V992H403V961Z" fill="black"/>
  <path d="M496 961H465V992H496V961Z" fill="black"/>
  <path d="M558 961H527V992H558V961Z" fill="black"/>
  <path d="M589 961H558V992H589V961Z" fill="black"/>
  <path d="M651 961H620V992H651V961Z" fill="black"/>
  <path d="M682 961H651V992H682V961Z" fill="black"/>
  <path d="M713 961H682V992H713V961Z" fill="black"/>
  <path d="M744 961H713V992H744V961Z" fill="black"/>
  <path d="M775 961H744V992H775V961Z" fill="black"/>
  <path d="M806 961H775V992H806V961Z" fill="black"/>
  <path d="M279 992H248V1023H279V992Z" fill="black"/>
  <path d="M310 992H279V1023H310V992Z" fill="black"/>
  <path d="M372 992H341V1023H372V992Z" fill="black"/>
  <path d="M434 992H403V1023H434V992Z" fill="black"/>
  <path d="M527 992H496V1023H527V992Z" fill="black"/>
  <path d="M589 992H558V1023H589V992Z" fill="black"/>
  <path d="M682 992H651V1023H682V992Z" fill="black"/>
  <path d="M775 992H744V1023H775V992Z" fill="black"/>
  <path d="M899 992H868V1023H899V992Z" fill="black"/>
  <path d="M930 992H899V1023H930V992Z" fill="black"/>
  <path d="M992 992H961V1023H992V992Z" fill="black"/>
  <path d="M184.45 0H32.55H0V32.55V184.45V217H32.55H184.45H217V184.45V32.55V0H184.45ZM184.45 184.45H32.55V32.55H184.45V184.45Z" fill="black"/>
  <path d="M990.45 0H838.55H806V32.55V184.45V217H838.55H990.45H1023V184.45V32.55V0H990.45ZM990.45 184.45H838.55V32.55H990.45V184.45Z" fill="black"/>
  <path d="M184.45 806H32.55H0V838.55V990.45V1023H32.55H184.45H217V990.45V838.55V806H184.45ZM184.45 990.45H32.55V838.55H184.45V990.45Z" fill="black"/>
  <path d="M155 62H62V155H155V62Z" fill="black"/>
  <path d="M961 62H868V155H961V62Z" fill="black"/>
  <path d="M155 868H62V961H155V868Z" fill="black"/>
</svg>
