<svg viewBox="0 0 30 27" fill="none" xmlns="http://www.w3.org/2000/svg">
    <path
        d="M20.5108 18.4318L21.8046 22.8926L25.1949 26.5437C25.6534 26.2795 26.0438 25.896 26.3182 25.4204L29.4682 19.9659C29.7426 19.492 29.879 18.9619 29.879 18.4318L25.0415 17.4943L20.5108 18.4318Z"
        fill="#EA4335" />
    <path
        d="M19.6841 0.774428C19.2256 0.510223 18.6989 0.363632 18.15 0.363632H11.8517C11.3063 0.363632 10.7744 0.513632 10.3176 0.774428L11.6744 5.34431L14.9881 8.8625L15 8.88636L18.3375 5.32556L19.6841 0.774428Z"
        fill="#188038" />
    <path
        d="M9.48922 18.4318L4.66024 17.3239L0.122742 18.4318C0.122742 18.9602 0.259105 19.4886 0.531833 19.9642L3.68183 25.4204C3.95626 25.8943 4.34661 26.2778 4.80513 26.5437L8.14433 23.104L9.48922 18.4318Z"
        fill="#1967D2" />
    <path
        d="M25.1369 9.39773L20.8074 1.89772C20.533 1.42216 20.1426 1.03863 19.6841 0.774429L15 8.88636L20.5108 18.4318H29.8773C29.8773 17.9017 29.7409 17.3733 29.4665 16.8977L25.1369 9.39773Z"
        fill="#FBBC04" />
    <path
        d="M20.5108 18.4318H9.48921L4.80511 26.5437C5.26364 26.8079 5.79034 26.9545 6.33921 26.9545H23.6591C24.208 26.9545 24.7347 26.8079 25.1932 26.5437L20.5108 18.4318Z"
        fill="#4285F4" />
    <path
        d="M15 8.88636L10.3176 0.774429C9.85911 1.03863 9.47047 1.42045 9.19604 1.89432L0.531833 16.9028C0.259105 17.3767 0.122742 17.9051 0.122742 18.4318H9.48922L15 8.88636Z"
        fill="#34A853" />
</svg>