<svg viewBox="0 0 20 20" fill="none" xmlns="http://www.w3.org/2000/svg">
    <mask id="mask0_144_102" style="mask-type:luminance" maskUnits="userSpaceOnUse" x="0" y="0"
        width="20" height="20">
        <path
            d="M0 3.78571C0 1.69492 1.69492 0 3.78571 0H16.2143C18.3051 0 20 1.69492 20 3.78571V16.2143C20 18.3051 18.3051 20 16.2143 20H3.78571C1.69492 20 0 18.3051 0 16.2143V3.78571Z"
            fill="currentColor" />
        <path
            d="M15.2857 2.14307H12.7143C11.2152 2.14307 10 3.35829 10 4.85735V15.1431C10 16.6421 11.2152 17.8574 12.7143 17.8574H15.2857C16.7848 17.8574 18 16.6421 18 15.1431V4.85735C18 3.35829 16.7848 2.14307 15.2857 2.14307Z"
            fill="currentColor" />
    </mask>
    <g mask="url(#mask0_144_102)">
        <path
            d="M0 3.78571C0 1.69492 1.69492 0 3.78571 0H16.2143C18.3051 0 20 1.69492 20 3.78571V16.2143C20 18.3051 18.3051 20 16.2143 20H3.78571C1.69492 20 0 18.3051 0 16.2143V3.78571Z"
            fill="currentColor" />
    </g>
</svg>