<svg viewBox="0 0 721 406" fill="none" xmlns="http://www.w3.org/2000/svg">
    <mask id="mask0_128_127" style="mask-type:luminance" maskUnits="userSpaceOnUse" x="15" y="21"
        width="692" height="364">
        <path
            d="M15 202.799C15 303.202 169.734 384.597 360.6 384.597C551.466 384.597 706.201 303.202 706.201 202.799C706.201 102.396 551.466 21 360.6 21C169.734 21 15 102.396 15 202.799Z"
            fill="white" />
    </mask>
    <g mask="url(#mask0_128_127)">
        <path
            d="M15 202.799C15 303.202 169.734 384.597 360.6 384.597C551.466 384.597 706.201 303.202 706.201 202.799C706.201 102.396 551.466 21 360.6 21C169.734 21 15 102.396 15 202.799Z"
            fill="url(#paint0_radial_128_127)" />
    </g>
    <mask id="mask1_128_127" style="mask-type:luminance" maskUnits="userSpaceOnUse" x="0" y="0"
        width="721" height="406">
        <path d="M0.599976 0.298706H720.6V405.299H0.599976V0.298706Z" fill="white" />
    </mask>
    <g mask="url(#mask1_128_127)">
        <path
            d="M360.6 371.099C544.011 371.099 692.7 295.748 692.7 202.798C692.7 109.849 544.011 34.497 360.6 34.497C177.189 34.497 28.5 109.849 28.5 202.798C28.5 295.748 177.189 371.099 360.6 371.099Z"
            fill="#777BB3" />
    </g>
    <mask id="mask2_128_127" style="mask-type:luminance" maskUnits="userSpaceOnUse" x="0" y="0"
        width="721" height="406">
        <path d="M0.599976 0.298706H720.6V405.299H0.599976V0.298706Z" fill="white" />
    </mask>
    <g mask="url(#mask2_128_127)">
        <path
            d="M202.768 223.665C217.849 223.665 229.108 220.884 236.232 215.402C243.279 209.975 248.147 200.574 250.698 187.46C253.077 175.203 252.171 166.644 248.006 162.025C243.747 157.308 234.539 154.915 220.639 154.915H196.538L183.177 223.665H202.768ZM123.939 308.353C122.821 308.353 121.758 307.853 121.047 306.988C120.334 306.124 120.046 304.987 120.259 303.888L155.669 121.699C156.012 119.938 157.556 118.665 159.351 118.665H235.668C259.653 118.665 277.506 125.178 288.727 138.024C300.008 150.938 303.492 168.989 299.081 191.675C297.286 200.918 294.198 209.502 289.904 217.187C285.606 224.88 279.924 231.999 273.016 238.349C264.746 246.089 255.386 251.702 245.221 255.004C235.217 258.263 222.369 259.915 207.036 259.915H176.133L167.308 305.318C166.966 307.08 165.423 308.353 163.628 308.353H123.939Z"
            fill="black" />
        <path
            d="M199.63 158.665H220.64C237.416 158.665 243.243 162.346 245.223 164.54C248.508 168.182 249.128 175.862 247.017 186.749C244.645 198.936 240.247 207.577 233.945 212.43C227.492 217.397 217.002 219.915 202.768 219.915H187.726L199.63 158.665ZM235.668 114.915H159.35C155.76 114.915 152.673 117.46 151.988 120.984L116.578 303.172C116.151 305.371 116.728 307.645 118.152 309.374C119.577 311.102 121.7 312.102 123.94 312.102H163.627C167.218 312.102 170.305 309.557 170.99 306.034L179.225 263.665H207.036C222.763 263.665 236.003 261.95 246.385 258.569C257.061 255.1 266.883 249.219 275.577 241.089C282.767 234.474 288.69 227.049 293.177 219.017C297.666 210.984 300.891 202.025 302.762 192.39C307.406 168.51 303.633 149.387 291.551 135.557C279.586 121.86 260.783 114.915 235.668 114.915ZM178.627 227.415H202.768C218.77 227.415 230.688 224.401 238.52 218.372C246.352 212.342 251.635 202.279 254.38 188.176C257.006 174.636 255.81 165.081 250.791 159.515C245.766 153.949 235.717 151.165 220.64 151.165H193.447L178.627 227.415ZM235.668 122.415C258.627 122.415 275.376 128.44 285.903 140.491C296.43 152.542 299.6 169.364 295.4 190.96C293.671 199.856 290.747 207.99 286.631 215.359C282.51 222.732 277.128 229.475 270.478 235.589C262.553 243.005 253.75 248.29 244.062 251.437C234.375 254.594 222.036 256.165 207.036 256.165H173.041L163.627 304.602H123.94L159.35 122.415H235.668Z"
            fill="white" />
        <path
            d="M390.079 259.915C388.959 259.915 387.897 259.415 387.186 258.55C386.472 257.687 386.184 256.55 386.397 255.45L402.061 174.839C403.551 167.173 403.184 161.67 401.027 159.345C399.707 157.924 395.742 155.54 384.019 155.54H355.641L335.947 256.88C335.605 258.643 334.061 259.915 332.266 259.915H292.891C291.771 259.915 290.71 259.415 289.997 258.55C289.285 257.687 288.996 256.549 289.21 255.45L324.62 73.2617C324.962 71.5005 326.506 70.228 328.301 70.228H367.676C368.796 70.228 369.857 70.728 370.57 71.5917C371.282 72.4567 371.571 73.593 371.357 74.693L362.812 118.665H393.34C416.596 118.665 432.366 122.765 441.551 131.2C450.914 139.805 453.835 153.564 450.235 172.099L433.76 256.88C433.417 258.643 431.875 259.915 430.079 259.915H390.079Z"
            fill="black" />
        <path
            d="M367.676 66.4774H328.301C324.71 66.4774 321.624 69.0224 320.939 72.5461L285.529 254.735C285.101 256.934 285.679 259.207 287.104 260.936C288.529 262.665 290.651 263.665 292.891 263.665H332.266C335.856 263.665 338.944 261.12 339.629 257.596L358.733 159.29H384.019C395.723 159.29 398.179 161.79 398.278 161.897C398.988 162.661 399.921 166.199 398.38 174.124L382.716 254.735C382.289 256.934 382.866 259.207 384.291 260.936C385.716 262.665 387.839 263.665 390.079 263.665H430.079C433.669 263.665 436.756 261.12 437.441 257.596L453.915 172.815C457.781 152.914 454.474 137.985 444.089 128.44C434.179 119.339 417.579 114.915 393.34 114.915H367.36L375.039 75.4086C375.465 73.2099 374.889 70.9349 373.464 69.2074C372.039 67.4786 369.916 66.4774 367.676 66.4774ZM367.676 73.9774L358.263 122.415H393.34C415.411 122.415 430.635 126.267 439.014 133.962C447.393 141.662 449.903 154.139 446.554 171.385L430.079 256.165H390.079L405.743 175.555C407.525 166.385 406.87 160.13 403.775 156.795C400.679 153.46 394.093 151.79 384.019 151.79H352.549L332.266 256.165H292.891L328.301 73.9774H367.676Z"
            fill="white" />
        <path
            d="M512.537 223.665C527.619 223.665 538.877 220.884 546.001 215.402C553.049 209.977 557.916 200.575 560.469 187.46C562.847 175.203 561.941 166.644 557.775 162.025C553.516 157.308 544.309 154.915 530.409 154.915H506.307L492.946 223.665H512.537ZM433.71 308.353C432.591 308.353 431.529 307.853 430.817 306.988C430.105 306.124 429.815 304.987 430.029 303.888L465.439 121.699C465.782 119.938 467.325 118.665 469.121 118.665H545.437C569.424 118.665 587.275 125.178 598.497 138.024C609.779 150.937 613.261 168.988 608.851 191.675C607.054 200.918 603.967 209.502 599.674 217.187C595.375 224.88 589.694 231.999 582.785 238.349C574.515 246.089 565.155 251.702 554.99 255.004C544.986 258.263 532.139 259.915 516.805 259.915H485.901L477.08 305.318C476.736 307.08 475.194 308.353 473.397 308.353H433.71Z"
            fill="black" />
        <path
            d="M509.399 158.665H530.409C547.185 158.665 553.013 162.346 554.993 164.54C558.279 168.182 558.899 175.862 556.786 186.747C554.414 198.936 550.015 207.577 543.714 212.43C537.261 217.397 526.771 219.915 512.538 219.915H497.496L509.399 158.665ZM545.438 114.915H469.12C465.53 114.915 462.444 117.46 461.759 120.984L426.349 303.172C425.921 305.371 426.499 307.645 427.923 309.374C429.348 311.102 431.47 312.102 433.71 312.102H473.398C476.988 312.102 480.075 309.557 480.76 306.034L488.994 263.665H516.805C532.533 263.665 545.773 261.95 556.154 258.569C566.83 255.1 576.655 249.217 585.349 241.086C592.539 234.472 598.459 227.049 602.946 219.017C607.435 210.984 610.66 202.025 612.531 192.39C617.175 168.509 613.403 149.386 601.32 135.556C589.355 121.86 570.554 114.915 545.438 114.915ZM488.398 227.415H512.538C528.539 227.415 540.458 224.401 548.289 218.372C556.123 212.342 561.404 202.279 564.149 188.176C566.776 174.636 565.58 165.081 560.56 159.515C555.535 153.949 545.486 151.165 530.409 151.165H503.216L488.398 227.415ZM545.438 122.415C568.396 122.415 585.145 128.44 595.673 140.491C606.2 152.542 609.369 169.364 605.169 190.96C603.44 199.856 600.516 207.99 596.4 215.359C592.279 222.732 586.898 229.475 580.248 235.589C572.323 243.005 563.519 248.29 553.831 251.437C544.144 254.594 531.805 256.165 516.805 256.165H482.81L473.398 304.602H433.71L469.12 122.415H545.438Z"
            fill="white" />
    </g>
    <defs>
        <radialGradient id="paint0_radial_128_127" cx="0" cy="0" r="1"
            gradientUnits="userSpaceOnUse"
            gradientTransform="translate(222.5 84.9148) scale(453.822 453.822)">
            <stop stop-color="#AEB2D5" />
            <stop offset="0.3" stop-color="#AEB2D5" />
            <stop offset="0.75" stop-color="#484C89" />
            <stop offset="1" stop-color="#484C89" />
        </radialGradient>
    </defs>
</svg>